<svg width="160" height="70" viewBox="0 0 160 70" fill="none" xmlns="http://www.w3.org/2000/svg">
<path d="M4.875 51.1875C4 44.6042 3.45833 37.8125 3.25 30.8125C3.04167 23.7708 3.04167 16.9792 3.25 10.4375C2.875 10.6458 2.54167 10.8333 2.25 11C1.95833 11.1667 1.60417 11.25 1.1875 11.25C0.895833 11.25 0.625 11.125 0.375 10.875C0.125 10.625 0 10.3125 0 9.9375V9.75C0 9.70833 0.0208333 9.64583 0.0625 9.5625C0.395833 9.1875 0.791667 8.54167 1.25 7.625C1.75 6.70833 2.27083 5.8125 2.8125 4.9375C3.35417 4.02083 3.875 3.22917 4.375 2.5625C4.875 1.85417 5.3125 1.5 5.6875 1.5C6.0625 1.5 6.33333 1.60417 6.5 1.8125C6.70833 1.97917 6.875 2.1875 7 2.4375C7.125 2.6875 7.25 2.97917 7.375 3.3125C7.54167 3.60417 7.77083 3.83333 8.0625 4C9.3125 3.25 10.6875 2.60417 12.1875 2.0625C13.6875 1.52083 15.1875 1.14583 16.6875 0.9375C18.2292 0.729167 19.7083 0.708333 21.125 0.875C22.5833 1 23.8958 1.35417 25.0625 1.9375C26.2292 2.47917 27.2292 3.27083 28.0625 4.3125C28.8958 5.35417 29.4375 6.66667 29.6875 8.25C29.6458 10.2917 29.0417 12.2292 27.875 14.0625C26.75 15.8542 25.3333 17.5 23.625 19C21.9583 20.4583 20.1458 21.7708 18.1875 22.9375C16.2292 24.0625 14.4167 25.0417 12.75 25.875C11.125 26.7083 9.77083 27.375 8.6875 27.875C7.64583 28.375 7.16667 28.6667 7.25 28.75V51.1875C7.25 51.5208 7.10417 51.75 6.8125 51.875C6.52083 52 6.25 52.0625 6 52.0625C5.54167 52.0625 5.16667 51.7708 4.875 51.1875ZM7.25 8C7.125 9.20833 6.95833 10.5417 6.75 12C6.58333 13.4167 6.45833 14.8958 6.375 16.4375C6.29167 17.9375 6.29167 19.4167 6.375 20.875C6.5 22.3333 6.79167 23.6458 7.25 24.8125C9.04167 24.0208 10.9167 23.1458 12.875 22.1875C14.8333 21.1875 16.7083 20.0625 18.5 18.8125C20.2917 17.5625 21.8958 16.1875 23.3125 14.6875C24.7708 13.1458 25.8542 11.4375 26.5625 9.5625C26.5625 8.5625 26.1875 7.70833 25.4375 7C24.7292 6.29167 23.8542 5.70833 22.8125 5.25C21.7708 4.79167 20.6875 4.47917 19.5625 4.3125C18.4792 4.10417 17.5833 4 16.875 4C16.4583 4 15.7708 4.125 14.8125 4.375C13.8958 4.58333 12.9167 4.875 11.875 5.25C10.875 5.58333 9.91667 6 9 6.5C8.125 7 7.54167 7.5 7.25 8ZM32.5625 43.4375C32.2708 41.5208 32.125 39.6667 32.125 37.875C32.125 36.0417 32.2292 34.1875 32.4375 32.3125C32.6875 30.4375 33.0208 28.5 33.4375 26.5C33.8958 24.4583 34.4167 22.2708 35 19.9375C35 19.4792 35.125 19.0625 35.375 18.6875C35.625 18.2708 35.9583 17.9375 36.375 17.6875C36.7917 17.3958 37.2292 17.1667 37.6875 17C38.1458 16.8333 38.5833 16.75 39 16.75C39.9167 16.75 40.75 17.0417 41.5 17.625C42.25 18.2083 42.9167 18.9167 43.5 19.75C44.125 20.5833 44.6458 21.4792 45.0625 22.4375C45.5208 23.3542 45.8958 24.1458 46.1875 24.8125C46.5208 26.2708 46.75 27.9375 46.875 29.8125C47.0417 31.6458 47.0625 33.5208 46.9375 35.4375C46.8125 37.3542 46.5208 39.25 46.0625 41.125C45.6042 42.9583 44.9583 44.6458 44.125 46.1875C43.2917 47.7292 42.2083 49.0208 40.875 50.0625C39.5833 51.1042 38.0417 51.75 36.25 52C35.2917 52 34.5625 51.6875 34.0625 51.0625C33.5625 50.3958 33.1875 49.6042 32.9375 48.6875C32.7292 47.7292 32.6042 46.7708 32.5625 45.8125C32.5625 44.8542 32.5625 44.0625 32.5625 43.4375ZM35.75 43.25C35.75 43.6667 35.75 44.0625 35.75 44.4375C35.7917 44.8125 35.8333 45.1875 35.875 45.5625C35.9583 45.8958 36.0417 46.2708 36.125 46.6875C36.25 47.0625 36.3958 47.5 36.5625 48H36.9375C37.9375 48 38.7917 47.6667 39.5 47C40.2083 46.3333 40.8125 45.4792 41.3125 44.4375C41.8125 43.3542 42.2292 42.1667 42.5625 40.875C42.8958 39.5417 43.1458 38.25 43.3125 37C43.5208 35.7083 43.6458 34.5208 43.6875 33.4375C43.7708 32.3125 43.8125 31.4167 43.8125 30.75V29.5C43.8125 28.9583 43.7917 28.3542 43.75 27.6875C43.7083 26.9792 43.625 26.2708 43.5 25.5625C43.4167 24.8125 43.2708 24.1458 43.0625 23.5625C42.8542 22.9375 42.5833 22.4375 42.25 22.0625C41.9167 21.6875 41.4792 21.5 40.9375 21.5C40.0208 21.2083 39.2292 21.2708 38.5625 21.6875C37.9375 22.1042 37.4167 22.8125 37 23.8125C36.625 24.7708 36.3333 25.9583 36.125 27.375C35.9167 28.7917 35.7917 30.3542 35.75 32.0625C35.7083 33.7708 35.6875 35.5833 35.6875 37.5C35.7292 39.4167 35.75 41.3333 35.75 43.25ZM52.1875 51.8125C52.0625 50.6458 51.9583 49.0625 51.875 47.0625C51.7917 45.0625 51.7083 42.8958 51.625 40.5625C51.5417 38.1875 51.4375 35.7292 51.3125 33.1875C51.2292 30.6458 51.125 28.2292 51 25.9375C50.875 23.6458 50.7083 21.5625 50.5 19.6875C50.3333 17.8125 50.1458 16.3125 49.9375 15.1875C49.9375 14.3542 50.125 13.875 50.5 13.75C50.875 13.5833 51.3542 13.5 51.9375 13.5C52.0208 13.5 52.2083 13.5 52.5 13.5C52.7917 13.5 53 13.5208 53.125 13.5625C53.5 14.8125 53.7292 16.4375 53.8125 18.4375C53.9375 20.3958 54.0208 22.5417 54.0625 24.875C54.1458 27.2083 54.2083 29.625 54.25 32.125C54.3333 34.625 54.4792 37 54.6875 39.25C55.2708 35.9583 55.75 33.2292 56.125 31.0625C56.5417 28.8958 56.9167 27.1667 57.25 25.875C57.625 24.5417 57.9583 23.5625 58.25 22.9375C58.5833 22.2708 58.9375 21.8333 59.3125 21.625C59.7292 21.4167 60.1667 21.3333 60.625 21.375C61.125 21.375 61.7083 21.375 62.375 21.375C63.125 21.375 63.7292 21.6667 64.1875 22.25C64.6875 22.8333 65.0625 23.5833 65.3125 24.5C65.6042 25.4167 65.8125 26.4167 65.9375 27.5C66.1042 28.5833 66.25 29.6458 66.375 30.6875C66.5 31.6875 66.625 32.6042 66.75 33.4375C66.9167 34.2708 67.1667 34.8542 67.5 35.1875C68.5417 32.1042 69.4375 29.5833 70.1875 27.625C70.9375 25.6667 71.5833 24.125 72.125 23C72.6667 21.8333 73.1458 21 73.5625 20.5C73.9792 20 74.3542 19.7083 74.6875 19.625C75.0208 19.5 75.3125 19.4792 75.5625 19.5625C75.8542 19.6458 76.1458 19.6875 76.4375 19.6875C77.5625 19.6875 78.4167 20.2708 79 21.4375C79.6667 23.3125 80.125 25.1042 80.375 26.8125C80.625 28.4792 80.7708 30.1042 80.8125 31.6875C80.8542 33.2292 80.8542 34.7083 80.8125 36.125C80.8125 37.5417 80.8542 38.9167 80.9375 40.25C81.0625 41.5833 81.2917 42.8958 81.625 44.1875C82 45.4792 82.625 46.75 83.5 48C83.1667 48.6667 82.8333 49.125 82.5 49.375C82.1667 49.5833 81.7083 49.6875 81.125 49.6875C80.625 49.6875 80.1875 49.5208 79.8125 49.1875C79.4375 48.8125 79.125 48.375 78.875 47.875C78.625 47.3333 78.4167 46.7917 78.25 46.25C78.125 45.7083 78 45.2292 77.875 44.8125C77.7083 38.8542 77.4375 34.2917 77.0625 31.125C76.7292 27.9167 76.2083 26.2292 75.5 26.0625C74.7917 25.8958 73.875 27.2917 72.75 30.25C71.6667 33.1667 70.3125 37.75 68.6875 44C68.5625 44.2083 68.375 44.3333 68.125 44.375C67.875 44.4167 67.6042 44.4375 67.3125 44.4375C67.0625 44.4375 66.7917 44.4375 66.5 44.4375C66.25 44.3958 66 44.3958 65.75 44.4375C64.7083 38.3125 63.8333 33.9167 63.125 31.25C62.4583 28.5417 61.7708 27.5 61.0625 28.125C60.3542 28.75 59.5625 31 58.6875 34.875C57.8125 38.7083 56.6875 44.1042 55.3125 51.0625L52.1875 51.8125ZM86.9375 68.4375C87.3958 64.0625 87.6458 59.8958 87.6875 55.9375C87.7708 52.0208 87.75 48.1458 87.625 44.3125C87.5417 40.4792 87.3958 36.6042 87.1875 32.6875C86.9792 28.7708 86.8542 24.625 86.8125 20.25C86.9375 19.6667 87.0833 19.2292 87.25 18.9375C87.4583 18.6042 87.9792 18.5208 88.8125 18.6875C89.6875 18.8958 90.2083 19.3958 90.375 20.1875C90.5417 20.9375 90.5833 21.7917 90.5 22.75C90.4167 23.7083 90.2917 24.6667 90.125 25.625C89.9583 26.5833 89.9583 27.3542 90.125 27.9375C91.4583 26.9792 92.875 25.9792 94.375 24.9375C95.875 23.8958 97.4375 22.9792 99.0625 22.1875C100.688 21.3542 102.375 20.75 104.125 20.375C105.875 19.9583 107.625 19.9375 109.375 20.3125C111.542 20.8125 113.042 21.5625 113.875 22.5625C114.75 23.5208 115.083 24.6458 114.875 25.9375C114.708 27.1875 114.125 28.5833 113.125 30.125C112.125 31.625 110.896 33.1458 109.438 34.6875C107.979 36.2292 106.354 37.75 104.562 39.25C102.771 40.75 101.021 42.1458 99.3125 43.4375C97.6042 44.6875 96 45.7917 94.5 46.75C93.0417 47.7083 91.875 48.4167 91 48.875C90.9583 49.375 90.8958 50.1667 90.8125 51.25C90.7708 52.2917 90.7083 53.4792 90.625 54.8125C90.5833 56.1458 90.5208 57.5417 90.4375 59C90.3958 60.4583 90.3333 61.8542 90.25 63.1875C90.2083 64.5208 90.1458 65.7083 90.0625 66.75C90.0208 67.7917 90 68.5625 90 69.0625C89.9167 69.1042 89.7708 69.1458 89.5625 69.1875C89.3542 69.2292 89.1042 69.25 88.8125 69.25C88.5208 69.2917 88.25 69.3125 88 69.3125C87.75 69.3542 87.5833 69.3542 87.5 69.3125C87.375 69.3125 87.25 69.1875 87.125 68.9375C87 68.7292 86.9375 68.5625 86.9375 68.4375ZM90.4375 34.1875C90.3125 34.7708 90.2708 35.5 90.3125 36.375C90.3958 37.2083 90.4792 38.1042 90.5625 39.0625C90.6875 39.9792 90.8125 40.875 90.9375 41.75C91.0625 42.625 91.1458 43.375 91.1875 44C92.7708 42.7917 94.6042 41.5625 96.6875 40.3125C98.8125 39.0625 100.854 37.7083 102.812 36.25C104.812 34.7917 106.583 33.1667 108.125 31.375C109.667 29.5833 110.688 27.5625 111.188 25.3125C111.354 24.4375 111.271 23.8542 110.938 23.5625C110.646 23.2292 110.125 23 109.375 22.875C107.792 22.5417 105.979 22.6667 103.938 23.25C101.896 23.7917 99.9167 24.6042 98 25.6875C96.125 26.7708 94.4792 28.0625 93.0625 29.5625C91.6458 31.0625 90.7708 32.6042 90.4375 34.1875ZM119.438 38.5C119.229 38.5417 118.917 38.6042 118.5 38.6875C118.083 38.7708 117.646 38.7917 117.188 38.75C116.729 38.7083 116.333 38.5833 116 38.375C115.625 38.1667 115.438 37.8125 115.438 37.3125C115.438 37.0208 115.5 36.8125 115.625 36.6875C115.75 36.5625 115.958 36.375 116.25 36.125C117.167 35.375 117.938 34.4167 118.562 33.25C119.229 32.0417 119.833 30.7708 120.375 29.4375C120.917 28.0625 121.479 26.7083 122.062 25.375C122.688 24 123.396 22.7708 124.188 21.6875C124.979 20.6042 125.958 19.7292 127.125 19.0625C128.292 18.3958 129.729 18.0833 131.438 18.125C132.146 18.125 132.938 18.2917 133.812 18.625C134.688 18.9583 135.5 19.4167 136.25 20C137 20.5417 137.625 21.2083 138.125 22C138.625 22.7917 138.875 23.6667 138.875 24.625C139.083 24.9583 138.875 25.4375 138.25 26.0625C137.667 26.6875 136.854 27.375 135.812 28.125C134.771 28.8333 133.583 29.5833 132.25 30.375C130.958 31.125 129.708 31.8333 128.5 32.5C127.292 33.1667 126.229 33.75 125.312 34.25C124.396 34.75 123.792 35.125 123.5 35.375C123.292 35.7917 123.125 36.2708 123 36.8125C122.875 37.3542 122.771 37.875 122.688 38.375C122.646 38.8333 122.604 39.2708 122.562 39.6875C122.562 40.0625 122.562 40.3542 122.562 40.5625C122.562 41.3542 122.521 42.2292 122.438 43.1875C122.396 44.1458 122.438 45.0625 122.562 45.9375C122.729 46.7708 123.083 47.4792 123.625 48.0625C124.167 48.6042 125.083 48.875 126.375 48.875C127.75 48.875 129.042 48.5417 130.25 47.875C131.458 47.1667 132.583 46.3125 133.625 45.3125C134.667 44.3125 135.604 43.2292 136.438 42.0625C137.312 40.8958 138.083 39.8125 138.75 38.8125C139.458 37.7708 140.083 36.9167 140.625 36.25C141.167 35.5833 141.625 35.25 142 35.25C142.417 35.25 142.854 35.3333 143.312 35.5C143.812 35.625 144.062 35.9583 144.062 36.5C144.062 37.25 143.75 38.1458 143.125 39.1875C142.542 40.2292 141.75 41.3333 140.75 42.5C139.792 43.6667 138.667 44.8333 137.375 46C136.125 47.125 134.854 48.1458 133.562 49.0625C132.271 49.9375 131 50.6667 129.75 51.25C128.5 51.7917 127.396 52.0625 126.438 52.0625C124.562 52.0625 123.146 51.6042 122.188 50.6875C121.229 49.7708 120.542 48.625 120.125 47.25C119.75 45.875 119.542 44.4167 119.5 42.875C119.5 41.2917 119.479 39.8333 119.438 38.5ZM130.938 21.625C130.229 21.625 129.479 21.9792 128.688 22.6875C127.896 23.3542 127.146 24.1875 126.438 25.1875C125.771 26.1458 125.208 27.1458 124.75 28.1875C124.333 29.1875 124.125 30.0208 124.125 30.6875C124.75 30.6875 125.646 30.4583 126.812 30C128.021 29.5 129.208 28.8958 130.375 28.1875C131.542 27.4792 132.562 26.7292 133.438 25.9375C134.312 25.1458 134.75 24.3958 134.75 23.6875C134.75 23.3125 134.604 23 134.312 22.75C134.021 22.5 133.667 22.2917 133.25 22.125C132.875 21.9583 132.479 21.8333 132.062 21.75C131.646 21.6667 131.271 21.625 130.938 21.625ZM148.188 50.75C148.188 48.0417 148.125 45.1875 148 42.1875C147.917 39.1875 147.812 36.1667 147.688 33.125C147.604 30.0417 147.583 27.0208 147.625 24.0625C147.667 21.1042 147.854 18.3333 148.188 15.75C148.271 15.7083 148.458 15.6875 148.75 15.6875C149.083 15.6458 149.312 15.625 149.438 15.625C150.021 15.625 150.479 15.7292 150.812 15.9375C151.188 16.1042 151.375 16.5 151.375 17.125C151.375 19.5833 151.354 22.2708 151.312 25.1875C151.312 28.0625 151.292 31 151.25 34C151.25 36.9583 151.25 39.8958 151.25 42.8125C151.25 45.7292 151.292 48.375 151.375 50.75C151.417 51.4583 151.271 51.9167 150.938 52.125C150.646 52.375 150.271 52.5 149.812 52.5C149.312 52.5 148.896 52.375 148.562 52.125C148.229 51.9167 148.104 51.4583 148.188 50.75ZM146.812 6C146.812 5.5 146.979 5.16667 147.312 5C147.646 4.83333 148.021 4.75 148.438 4.75C149.271 4.75 149.792 5.02083 150 5.5625C150.208 6.10417 150.312 6.72917 150.312 7.4375C150.062 7.89583 149.75 8.22917 149.375 8.4375C149 8.60417 148.604 8.64583 148.188 8.5625C147.812 8.4375 147.479 8.16667 147.188 7.75C146.938 7.33333 146.812 6.75 146.812 6ZM156.688 50.75C156.688 48.0417 156.625 45.1875 156.5 42.1875C156.417 39.1875 156.312 36.1667 156.188 33.125C156.104 30.0417 156.083 27.0208 156.125 24.0625C156.167 21.1042 156.354 18.3333 156.688 15.75C156.771 15.7083 156.958 15.6875 157.25 15.6875C157.583 15.6458 157.812 15.625 157.938 15.625C158.521 15.625 158.979 15.7292 159.312 15.9375C159.688 16.1042 159.875 16.5 159.875 17.125C159.875 19.5833 159.854 22.2708 159.812 25.1875C159.812 28.0625 159.792 31 159.75 34C159.75 36.9583 159.75 39.8958 159.75 42.8125C159.75 45.7292 159.792 48.375 159.875 50.75C159.917 51.4583 159.771 51.9167 159.438 52.125C159.146 52.375 158.771 52.5 158.312 52.5C157.812 52.5 157.396 52.375 157.062 52.125C156.729 51.9167 156.604 51.4583 156.688 50.75ZM155.312 6C155.312 5.5 155.479 5.16667 155.812 5C156.146 4.83333 156.521 4.75 156.938 4.75C157.771 4.75 158.292 5.02083 158.5 5.5625C158.708 6.10417 158.812 6.72917 158.812 7.4375C158.562 7.89583 158.25 8.22917 157.875 8.4375C157.5 8.60417 157.104 8.64583 156.688 8.5625C156.312 8.4375 155.979 8.16667 155.688 7.75C155.438 7.33333 155.312 6.75 155.312 6Z" fill="#F1916D"/>
</svg>
